<svg width="168" height="168" viewBox="0 0 168 168" fill="none" xmlns="http://www.w3.org/2000/svg">
<g clip-path="url(#clip0)">
<rect width="168" height="168" rx="84" fill="#010022"/>
<path d="M158.413 87.1481C156.51 126.875 123.698 158.5 83.5 158.5C42.0786 158.5 8.5 124.921 8.5 83.5C8.5 43.3017 40.1249 10.4899 79.8519 8.58717C43.8914 46.2591 43.7982 84.1695 63.3143 103.686C82.8305 123.202 120.741 123.109 158.413 87.1481Z" fill="#00D0FE" stroke="#00046C" stroke-width="3"/>
<path d="M147.898 66.4748C157.024 101.765 135.815 137.771 100.525 146.898C65.2353 156.024 29.2288 134.815 20.1023 99.5249C100.525 146.898 147.898 66.4748 67.4749 19.1021C102.765 9.97557 138.771 31.185 147.898 66.4748Z" fill="white" stroke="#0500FF" stroke-opacity="0.56" stroke-width="3"/>
<g filter="url(#filter0_dd)">
<circle cx="83.5" cy="82.5" r="49.5" stroke="white" stroke-opacity="0.01"/>
</g>
</g>
<defs>
<filter id="filter0_dd" x="-56.5" y="-57.5" width="280" height="280" filterUnits="userSpaceOnUse" color-interpolation-filters="sRGB">
<feFlood flood-opacity="0" result="BackgroundImageFix"/>
<feColorMatrix in="SourceAlpha" type="matrix" values="0 0 0 0 0 0 0 0 0 0 0 0 0 0 0 0 0 0 127 0" result="hardAlpha"/>
<feMorphology radius="25" operator="dilate" in="SourceAlpha" result="effect1_dropShadow"/>
<feOffset/>
<feGaussianBlur stdDeviation="32.5"/>
<feColorMatrix type="matrix" values="0 0 0 0 0 0 0 0 0 0.4 0 0 0 0 1 0 0 0 0.25 0"/>
<feBlend mode="normal" in2="BackgroundImageFix" result="effect1_dropShadow"/>
<feColorMatrix in="SourceAlpha" type="matrix" values="0 0 0 0 0 0 0 0 0 0 0 0 0 0 0 0 0 0 127 0" result="hardAlpha"/>
<feOffset/>
<feGaussianBlur stdDeviation="2"/>
<feColorMatrix type="matrix" values="0 0 0 0 1 0 0 0 0 1 0 0 0 0 1 0 0 0 1 0"/>
<feBlend mode="normal" in2="effect1_dropShadow" result="effect2_dropShadow"/>
<feBlend mode="normal" in="SourceGraphic" in2="effect2_dropShadow" result="shape"/>
</filter>
<clipPath id="clip0">
<rect width="168" height="168" rx="84" fill="white"/>
</clipPath>
</defs>
</svg>
