<svg width="1326" height="48" viewBox="0 0 1326 48" fill="none" xmlns="http://www.w3.org/2000/svg">
<path fill-rule="evenodd" clip-rule="evenodd" d="M24.8524 4.48761L33.1879 31.6935C29.9506 30.0249 26.4788 28.8572 22.8912 28.2303L17.2844 9.40613C17.2392 9.25528 17.1464 9.12306 17.0199 9.02916C16.8935 8.93526 16.7401 8.88468 16.5826 8.88496C16.4251 8.88524 16.2719 8.93636 16.1458 9.0307C16.0197 9.12505 15.9274 9.25759 15.8826 9.40861L10.3433 28.2209C6.73934 28.8449 3.25153 30.0145 0 31.6895L8.37817 4.47968C8.87304 2.87158 9.12048 2.06728 9.60296 1.47174C10.0284 0.945898 10.5813 0.537593 11.2091 0.285621C11.9201 1.18224e-07 12.7611 0 14.4441 0H18.7834C20.4684 0 21.3109 5.91122e-08 22.0224 0.286116C22.6508 0.538641 23.2041 0.94783 23.6295 1.47471C24.1115 2.07124 24.3585 2.87653 24.8519 4.48761H24.8524Z" fill="white"/>
<path fill-rule="evenodd" clip-rule="evenodd" d="M24.6283 33.0313C23.2086 34.2373 20.3747 35.0599 17.1104 35.0599C13.1038 35.0599 9.7458 33.8207 8.85472 32.1541C8.53637 33.1092 8.46497 34.202 8.46497 34.9007C8.46497 34.9007 8.25522 38.3297 10.6557 40.7148C10.6557 39.4761 11.6658 38.4725 12.9124 38.4725C15.0491 38.4725 15.0466 40.324 15.0446 41.8265V41.9604C15.0446 44.2414 16.4474 46.1956 18.4423 47.0197C18.1354 46.3924 17.9763 45.703 17.9772 45.0045C17.9772 42.8297 19.2625 42.0194 20.756 41.0787C21.9441 40.33 23.2651 39.4979 24.1746 37.8288C24.6645 36.9307 24.9206 35.9238 24.9193 34.9007C24.9193 34.2492 24.8172 33.6209 24.6283 33.0313V33.0313Z" fill="#FF5D01"/>
<path d="M59.6962 31.7769C66.1995 31.7769 70.1327 30.2199 72.4301 26.9898C72.4301 28.4298 72.5079 29.792 72.7028 31.0376H76.5577C76.2076 29.0135 76.1298 27.6905 76.1298 24.032V19.05C76.1298 13.6792 71.963 10.8384 64.0187 10.8384C56.3476 10.8384 51.3631 13.7957 50.7398 18.0771H54.8288C55.4516 15.1971 58.6836 13.6787 64.0187 13.6787C69.2759 13.6787 72.3914 15.5085 72.3914 18.622V19.0113L60.2417 19.7119C55.2959 19.9842 53.4656 20.6848 52.0638 21.6969C50.7398 22.6698 50 24.1877 50 25.9391C50 29.6363 53.8162 31.7769 59.6962 31.7769ZM60.9423 29.0135C56.4255 29.0135 53.9332 27.9627 53.9332 25.8612C53.9332 23.6035 55.4907 22.592 60.9815 22.2414L72.3914 21.5412V22.4362C72.3914 26.5227 67.6013 29.0135 60.9423 29.0135V29.0135ZM94.1749 31.7769C102.236 31.7769 105.468 29.1305 105.468 25.2771C105.468 22.0857 103.482 20.4513 98.4195 20.0229L88.9569 19.284C86.3868 19.0891 84.9463 18.3498 84.9463 16.7541C84.9463 14.7299 87.1658 13.6792 91.9554 13.6792C97.4074 13.6792 100.25 14.7691 102.119 17.182L105.273 15.6642C103.326 12.6285 99.0036 10.8379 92.306 10.8379C85.4134 10.8379 81.2858 13.1342 81.2858 16.9093C81.2858 20.2956 83.7388 21.93 88.3727 22.3192L97.7575 23.0591C100.834 23.2921 101.769 23.9149 101.769 25.5106C101.769 27.807 99.3934 28.8969 94.6812 28.8969C88.9569 28.8969 85.3355 27.3399 83.5831 24.4986L80.5068 26.1726C82.882 29.7528 87.0488 31.7769 94.1749 31.7769ZM113.436 14.4964V23.8763C113.436 27.7292 114.76 31.5821 121.964 31.5821C123.794 31.5821 126.014 31.232 126.987 30.8035V27.6513C125.624 27.9627 123.989 28.1968 122.392 28.1968C119.004 28.1968 117.174 26.8728 117.174 23.5257V14.4964H126.91V11.5772H117.174V5L113.436 6.51786V11.5777H107.322V14.4964H113.436V14.4964ZM136.193 11.5777H132.766V31.0376H136.466V23.7587C136.466 20.9571 137.011 18.5824 138.568 16.948C139.932 15.4301 141.684 14.5737 144.76 14.5737C145.812 14.5737 146.474 14.6516 147.37 14.8073V11.2271C146.551 11.0322 145.851 10.9931 144.799 10.9931C140.633 10.9931 137.322 13.4451 136.193 17.2202V11.5772V11.5777ZM162.962 31.7769C171.257 31.7769 176.942 27.5735 176.942 21.3077C176.942 15.0414 171.257 10.8379 162.962 10.8379C154.668 10.8379 148.982 15.0414 148.982 21.3077C148.982 27.5735 154.668 31.7769 162.962 31.7769ZM162.962 28.7025C156.849 28.7025 152.915 25.822 152.915 21.3077C152.915 16.7928 156.849 13.9128 162.962 13.9128C169.037 13.9128 173.009 16.7928 173.009 21.3077C173.009 25.822 169.037 28.7021 162.962 28.7021V28.7025Z" fill="white"/>
<path fill-rule="evenodd" clip-rule="evenodd" d="M460.535 10C453.73 10 449.478 13.382 447.776 20.146C450.328 16.764 453.305 15.496 456.707 16.341C458.648 16.823 460.036 18.223 461.571 19.773C464.073 22.297 466.969 25.218 473.293 25.218C480.097 25.218 484.35 21.836 486.051 15.073C483.5 18.455 480.523 19.723 477.121 18.877C475.179 18.395 473.791 16.995 472.256 15.446C469.754 12.92 466.859 10 460.535 10ZM447.776 25.218C440.972 25.218 436.719 28.6 435.018 35.364C437.57 31.982 440.547 30.714 443.948 31.559C445.89 32.041 447.278 33.441 448.813 34.991C451.315 37.515 454.21 40.436 460.535 40.436C467.339 40.436 471.592 37.055 473.293 30.291C470.741 33.673 467.764 34.941 464.362 34.096C462.421 33.613 461.033 32.213 459.498 30.664C456.996 28.14 454.1 25.218 447.776 25.218V25.218Z" fill="#06B6D4"/>
<path fill-rule="evenodd" clip-rule="evenodd" d="M511.564 22.825H507.111V31.392C507.111 33.677 508.619 33.641 511.564 33.498V36.961C505.602 37.675 503.232 36.033 503.232 31.392V22.825H499.928V19.112H503.232V14.318L507.111 13.175V19.112H511.564V22.825ZM528.538 19.112H532.416V36.961H528.538V34.391C527.173 36.282 525.054 37.425 522.253 37.425C517.369 37.425 513.311 33.32 513.311 28.036C513.311 22.718 517.369 18.648 522.253 18.648C525.054 18.648 527.173 19.79 528.538 21.647V19.112V19.112ZM522.864 33.748C526.096 33.748 528.538 31.356 528.538 28.036C528.538 24.716 526.096 22.325 522.864 22.325C519.632 22.325 517.19 24.717 517.19 28.036C517.19 31.356 519.632 33.748 522.864 33.748ZM538.88 16.435C537.516 16.435 536.403 15.293 536.403 13.972C536.406 13.3173 536.668 12.6906 537.133 12.229C537.597 11.7673 538.225 11.5085 538.88 11.509C539.535 11.5082 540.163 11.767 540.628 12.2286C541.092 12.6902 541.355 13.3171 541.358 13.972C541.358 15.292 540.245 16.435 538.88 16.435ZM536.941 36.961V19.112H540.82V36.961H536.941ZM545.309 36.961V10.9H549.187V36.96H545.309V36.961ZM574.362 19.112H578.456L572.818 36.961H569.011L565.276 24.931L561.505 36.961H557.699L552.06 19.112H556.154L559.638 31.427L563.409 19.112H567.108L570.842 31.427L574.362 19.112V19.112ZM583.268 16.435C581.903 16.435 580.79 15.293 580.79 13.972C580.793 13.3171 581.056 12.6902 581.52 12.2286C581.985 11.767 582.613 11.5082 583.268 11.509C583.923 11.5082 584.551 11.767 585.016 12.2286C585.48 12.6902 585.743 13.3171 585.746 13.972C585.746 15.292 584.633 16.435 583.268 16.435ZM581.329 36.961V19.112H585.207V36.961H581.329V36.961ZM599.141 18.648C603.163 18.648 606.036 21.361 606.036 26.002V36.96H602.158V26.394C602.158 23.681 600.578 22.254 598.136 22.254C595.586 22.254 593.575 23.753 593.575 27.394V36.961H589.696V19.112H593.575V21.397C594.76 19.541 596.699 18.648 599.141 18.648V18.648ZM624.423 11.973H628.302V36.96H624.423V34.39C623.059 36.282 620.94 37.424 618.139 37.424C613.255 37.424 609.197 33.319 609.197 28.035C609.197 22.717 613.255 18.647 618.139 18.647C620.94 18.647 623.059 19.789 624.423 21.646V11.973V11.973ZM618.749 33.748C621.981 33.748 624.423 31.356 624.423 28.036C624.423 24.716 621.981 22.325 618.749 22.325C615.517 22.325 613.075 24.717 613.075 28.036C613.075 31.356 615.517 33.748 618.749 33.748ZM641.302 37.425C635.879 37.425 631.821 33.32 631.821 28.036C631.821 22.718 635.879 18.648 641.302 18.648C644.821 18.648 647.874 20.468 649.31 23.253L645.97 25.181C645.18 23.503 643.421 22.432 641.266 22.432C638.106 22.432 635.7 24.824 635.7 28.036C635.7 31.249 638.106 33.641 641.266 33.641C643.421 33.641 645.18 32.534 646.042 30.892L649.382 32.784C647.874 35.604 644.821 37.424 641.302 37.424V37.425ZM655.774 24.038C655.774 27.287 665.435 25.323 665.435 31.928C665.435 35.498 662.31 37.425 658.432 37.425C654.841 37.425 652.255 35.818 651.106 33.248L654.446 31.321C655.02 32.927 656.457 33.891 658.432 33.891C660.156 33.891 661.484 33.32 661.484 31.891C661.484 28.715 651.824 30.5 651.824 24.11C651.824 20.754 654.733 18.648 658.396 18.648C661.341 18.648 663.783 20.005 665.04 22.361L661.772 24.181C661.125 22.789 659.868 22.146 658.396 22.146C656.995 22.146 655.774 22.753 655.774 24.038V24.038ZM672.33 24.038C672.33 27.287 681.99 25.323 681.99 31.928C681.99 35.498 678.866 37.425 674.987 37.425C671.396 37.425 668.811 35.818 667.661 33.248L671.001 31.321C671.576 32.927 673.012 33.891 674.987 33.891C676.711 33.891 678.04 33.32 678.04 31.891C678.04 28.715 668.38 30.5 668.38 24.11C668.38 20.754 671.288 18.648 674.952 18.648C677.896 18.648 680.338 20.005 681.595 22.361L678.327 24.181C677.681 22.789 676.424 22.146 674.952 22.146C673.551 22.146 672.33 22.753 672.33 24.038V24.038Z" fill="white"/>
<path d="M777.155 17.7109C774.91 17.7109 773.125 18.5319 772.035 20.2399V11.5699H768.467V34.5599H772.035V25.7579C772.035 22.4079 773.885 21.0279 776.231 21.0279C778.477 21.0279 779.931 22.3419 779.931 24.8379V34.5599H783.499V24.4769C783.499 20.2069 780.857 17.7109 777.156 17.7109H777.155ZM789.323 27.8599H802.473C802.539 27.3999 802.605 26.8739 802.605 26.3819C802.605 21.6519 799.235 17.7119 794.313 17.7119C789.125 17.7119 785.591 21.4889 785.591 26.3489C785.591 31.2759 789.125 34.9879 794.577 34.9879C797.815 34.9879 800.292 33.6399 801.812 31.4079L798.872 29.6989C798.079 30.8489 796.592 31.7359 794.61 31.7359C791.967 31.7359 789.886 30.4219 789.323 27.8609V27.8599V27.8599ZM789.291 24.9699C789.786 22.5069 791.603 20.9299 794.279 20.9299C796.427 20.9299 798.509 22.1449 799.004 24.9699H789.291ZM817.906 18.1379V20.4689C816.65 18.7619 814.701 17.7109 812.123 17.7109C807.63 17.7109 803.897 21.4549 803.897 26.3489C803.897 31.2089 807.63 34.9879 812.123 34.9879C814.701 34.9879 816.65 33.9359 817.906 32.1949V34.5609H821.473V18.1369H817.906V18.1379V18.1379ZM812.686 31.6039C809.712 31.6039 807.465 29.4039 807.465 26.3489C807.465 23.2949 809.712 21.0939 812.686 21.0939C815.659 21.0939 817.906 23.2939 817.906 26.3489C817.906 29.4029 815.659 31.6049 812.686 31.6049V31.6039ZM837.89 11.5699V20.4699C836.634 18.7619 834.685 17.7109 832.108 17.7109C827.615 17.7109 823.882 21.4549 823.882 26.3489C823.882 31.2089 827.615 34.9879 832.108 34.9879C834.685 34.9879 836.634 33.9359 837.89 32.1949V34.5609H841.458V11.5689H837.89V11.5699ZM832.67 31.6049C829.697 31.6049 827.45 29.4029 827.45 26.3489C827.45 23.2949 829.697 21.0939 832.67 21.0939C835.643 21.0939 837.89 23.2939 837.89 26.3489C837.89 29.4029 835.643 31.6049 832.67 31.6049ZM844.791 34.5599H848.359V10.5839H844.791V34.5599ZM854.484 27.8599H867.634C867.7 27.3999 867.766 26.8739 867.766 26.3819C867.766 21.6519 864.396 17.7119 859.473 17.7119C854.286 17.7119 850.751 21.4889 850.751 26.3489C850.751 31.2759 854.286 34.9879 859.738 34.9879C862.975 34.9879 865.453 33.6399 866.973 31.4079L864.033 29.6989C863.239 30.8489 861.753 31.7359 859.77 31.7359C857.128 31.7359 855.046 30.4219 854.484 27.8609V27.8599ZM854.452 24.9699C854.947 22.5069 856.764 20.9299 859.44 20.9299C861.587 20.9299 863.669 22.1449 864.165 24.9699H854.452ZM872.639 22.6709C872.639 21.4889 873.762 20.9299 875.051 20.9299C876.406 20.9299 877.562 21.5209 878.156 22.8019L881.163 21.1269C880.007 18.9589 877.76 17.7109 875.051 17.7109C871.681 17.7109 869.005 19.6479 869.005 22.7369C869.005 28.6159 877.892 26.9729 877.892 29.8969C877.892 31.2099 876.67 31.7359 875.084 31.7359C873.267 31.7359 871.945 30.8489 871.416 29.3709L868.344 31.1449C869.401 33.5089 871.78 34.9879 875.084 34.9879C878.652 34.9879 881.526 33.2129 881.526 29.9279C881.526 23.8529 872.639 25.6599 872.639 22.6709V22.6709ZM886.042 22.6709C886.042 21.4889 887.165 20.9299 888.453 20.9299C889.808 20.9299 890.964 21.5209 891.559 22.8019L894.565 21.1269C893.409 18.9589 891.162 17.7109 888.453 17.7109C885.083 17.7109 882.407 19.6479 882.407 22.7369C882.407 28.6159 891.294 26.9729 891.294 29.8969C891.294 31.2099 890.072 31.7359 888.486 31.7359C886.669 31.7359 885.347 30.8489 884.819 29.3709L881.747 31.1449C882.803 33.5089 885.183 34.9879 888.486 34.9879C892.055 34.9879 894.929 33.2129 894.929 29.9279C894.929 23.8529 886.042 25.6599 886.042 22.6709V22.6709ZM913.255 30.7709C915.731 30.7709 917.564 29.3009 917.564 26.8889V19.3599H915.346V26.7119C915.346 27.7989 914.766 28.6139 913.255 28.6139C911.744 28.6139 911.165 27.7989 911.165 26.7109V19.3609H908.963V26.8879C908.963 29.2999 910.796 30.7699 913.255 30.7699V30.7709ZM919.884 19.3609V30.5499H922.103V19.3599H919.884V19.3609Z" fill="white"/>
<path fill-rule="evenodd" clip-rule="evenodd" d="M921.222 13.9959H909.739C907.202 13.9959 905.146 16.0409 905.146 18.5619V29.9779C905.146 32.4989 907.202 34.5439 909.739 34.5439H921.222C923.759 34.5439 925.815 32.4999 925.815 29.9779V18.5619C925.815 16.0409 923.759 13.9959 921.222 13.9959V13.9959ZM909.739 11.7129C905.934 11.7129 902.849 14.7799 902.849 18.5609V29.9779C902.849 33.7599 905.934 36.8259 909.739 36.8259H921.222C925.027 36.8259 928.112 33.7599 928.112 29.9779V18.5619C928.112 14.7799 925.027 11.7139 921.222 11.7139H909.739V11.7129V11.7129Z" fill="white"/>
<path fill-rule="evenodd" clip-rule="evenodd" d="M909.739 13.9949H921.222C923.759 13.9949 925.815 16.0399 925.815 18.5609V29.9769C925.815 32.4989 923.759 34.5429 921.222 34.5429H909.739C907.202 34.5429 905.146 32.4989 905.146 29.9769V18.5619C905.146 16.0399 907.202 13.9949 909.739 13.9949ZM902.849 18.5609C902.849 14.7789 905.934 11.7129 909.739 11.7129H921.222C925.027 11.7129 928.112 14.7789 928.112 18.5609V29.9769C928.112 33.7599 925.027 36.8259 921.222 36.8259H909.739C905.934 36.8259 902.849 33.7599 902.849 29.9759V18.5619V18.5609Z" fill="white"/>
<path d="M728.16 28.3699L750.256 21.0359C749.816 18.2919 749.502 16.4569 749.136 15.0579C748.744 13.5529 748.432 13.1499 748.309 13.0099C747.882 12.5249 747.352 12.1422 746.757 11.8899C746.586 11.8169 746.104 11.6469 744.543 11.7399C742.894 11.8399 740.727 12.1749 737.296 12.7149C733.866 13.2549 731.7 13.6019 730.101 14.0149C728.587 14.4049 728.181 14.7149 728.041 14.8369C727.554 15.2599 727.169 15.7869 726.914 16.3799C726.841 16.5499 726.669 17.0289 726.764 18.5809C726.864 20.2209 727.201 22.3749 727.744 25.7849C727.896 26.7399 728.032 27.5969 728.16 28.3699V28.3699Z" fill="url(#paint0_linear)"/>
<path fill-rule="evenodd" clip-rule="evenodd" d="M722.068 26.6779C721.018 20.0809 720.491 16.7829 721.631 14.1349C722.226 12.7523 723.125 11.5217 724.261 10.5349C726.441 8.63993 729.76 8.11693 736.397 7.07193C743.034 6.02693 746.351 5.50493 749.015 6.63693C750.402 7.22591 751.64 8.11927 752.635 9.25093C754.541 11.4199 755.067 14.7199 756.118 21.3169C757.169 27.9149 757.696 31.2129 756.556 33.8619C755.961 35.2442 755.062 36.4744 753.926 37.4609C751.745 39.3549 748.426 39.8779 741.79 40.9229C735.153 41.9679 731.835 42.4899 729.17 41.3579C727.783 40.769 726.545 39.8756 725.55 38.7439C723.646 36.5739 723.12 33.2739 722.068 26.6769V26.6779V26.6779ZM733.775 38.3929C735.552 38.2859 737.84 37.9309 741.229 37.3969C744.617 36.8629 746.903 36.4989 748.628 36.0539C750.298 35.6239 751.068 35.2039 751.565 34.7719C752.295 34.1375 752.873 33.3466 753.255 32.4579C753.515 31.8549 753.679 30.9979 753.575 29.2859C753.467 27.5179 753.109 25.2439 752.572 21.8759C752.036 18.5059 751.669 16.2339 751.222 14.5189C750.789 12.8589 750.366 12.0939 749.932 11.6009C749.292 10.8731 748.496 10.2986 747.604 9.91993C746.999 9.66193 746.136 9.49793 744.414 9.60193C742.636 9.70893 740.348 10.0649 736.959 10.5989C733.57 11.1319 731.284 11.4959 729.559 11.9399C727.889 12.3709 727.121 12.7909 726.623 13.2229C725.893 13.8573 725.315 14.6483 724.933 15.5369C724.673 16.1399 724.509 16.9969 724.613 18.7089C724.72 20.4769 725.079 22.7509 725.616 26.1199C726.152 29.4889 726.519 31.7619 726.966 33.4749C727.399 35.1359 727.823 35.9009 728.256 36.3949C728.896 37.1223 729.691 37.6964 730.583 38.0749C731.189 38.3329 732.052 38.4969 733.775 38.3919V38.3929V38.3929Z" fill="url(#paint1_linear)"/>
<path d="M1028.61 17.608C1026.46 17.608 1024.8 18.41 1023.83 19.853V11.642H1019.7V34.094H1023.84V25.434C1023.84 22.644 1025.34 21.457 1027.36 21.457C1029.22 21.457 1030.54 22.579 1030.54 24.76V34.094H1034.68V24.247C1034.68 19.981 1032.01 17.607 1028.61 17.607V17.608ZM1041.06 27.775H1053.16C1053.25 27.23 1053.32 26.685 1053.32 26.075C1053.32 21.361 1049.95 17.608 1045.2 17.608C1040.17 17.608 1036.73 21.296 1036.73 26.076C1036.73 30.855 1040.13 34.543 1045.52 34.543C1048.6 34.543 1051.01 33.293 1052.51 31.111L1049.18 29.187C1048.47 30.117 1047.19 30.79 1045.59 30.79C1043.41 30.79 1041.64 29.892 1041.06 27.775V27.775ZM1041 24.568C1041.48 22.515 1042.99 21.328 1045.2 21.328C1046.93 21.328 1048.67 22.258 1049.18 24.568H1041ZM1059.7 20.815V18.057H1055.56V34.094H1059.7V26.428C1059.7 23.061 1062.43 22.098 1064.58 22.355V17.736C1062.56 17.736 1060.53 18.634 1059.7 20.816V20.815ZM1073.39 34.543C1078.11 34.543 1081.89 30.855 1081.89 26.075C1081.89 21.296 1078.11 17.608 1073.39 17.608C1068.68 17.608 1064.93 21.296 1064.93 26.076C1064.93 30.855 1068.68 34.543 1073.39 34.543V34.543ZM1073.39 30.502C1070.96 30.502 1069.06 28.674 1069.06 26.076C1069.06 23.478 1070.96 21.649 1073.39 21.649C1075.86 21.649 1077.76 23.477 1077.76 26.076C1077.76 28.674 1075.86 30.502 1073.39 30.502ZM1086.21 16.132C1087.63 16.132 1088.78 14.978 1088.78 13.599C1088.78 12.219 1087.63 11.033 1086.21 11.033C1084.84 11.033 1083.68 12.219 1083.68 13.599C1083.68 14.978 1084.84 16.133 1086.21 16.133V16.132ZM1084.16 34.094H1088.3V18.057H1084.16V34.094ZM1099.08 34.543C1102.22 34.543 1104.95 32.875 1106.33 30.373L1102.74 28.321C1102.09 29.636 1100.71 30.438 1099.05 30.438C1096.58 30.438 1094.75 28.609 1094.75 26.076C1094.75 23.51 1096.58 21.681 1099.05 21.681C1100.68 21.681 1102.06 22.515 1102.7 23.831L1106.26 21.746C1104.95 19.276 1102.22 17.608 1099.08 17.608C1094.2 17.608 1090.61 21.296 1090.61 26.076C1090.61 30.855 1094.2 34.543 1099.08 34.543V34.543ZM1115.26 34.543C1119.97 34.543 1123.76 30.855 1123.76 26.075C1123.76 21.296 1119.97 17.608 1115.26 17.608C1110.54 17.608 1106.79 21.296 1106.79 26.076C1106.79 30.855 1110.54 34.543 1115.26 34.543ZM1115.26 30.502C1112.82 30.502 1110.93 28.674 1110.93 26.076C1110.93 23.478 1112.82 21.649 1115.26 21.649C1117.73 21.649 1119.62 23.477 1119.62 26.076C1119.62 28.674 1117.73 30.502 1115.26 30.502ZM1134.94 17.608C1132.8 17.608 1131.13 18.41 1130.16 19.853V18.057H1126.03V34.094H1130.16V25.434C1130.16 22.644 1131.67 21.457 1133.69 21.457C1135.55 21.457 1136.87 22.579 1136.87 24.76V34.094H1141.01V24.247C1141.01 19.981 1138.34 17.607 1134.94 17.607V17.608ZM1147.71 22.612C1147.71 21.746 1148.55 21.296 1149.57 21.296C1150.76 21.296 1151.66 21.906 1152.14 22.932L1155.67 21.008C1154.42 18.795 1152.17 17.608 1149.57 17.608C1146.27 17.608 1143.48 19.436 1143.48 22.708C1143.48 28.353 1151.76 27.07 1151.76 29.411C1151.76 30.341 1150.86 30.791 1149.54 30.791C1147.94 30.791 1146.85 30.021 1146.4 28.706L1142.81 30.726C1143.96 33.196 1146.33 34.543 1149.54 34.543C1152.97 34.543 1155.99 32.875 1155.99 29.411C1155.99 23.51 1147.71 24.985 1147.71 22.611V22.612Z" fill="white"/>
<path d="M983.44 8C987.996 11.5744 993.603 13.5472 999.393 13.613C999.64 14.944 999.769 16.318 999.769 17.724C999.769 27.996 992.864 36.661 983.44 39.321C974.016 36.661 967.112 27.996 967.112 17.724C967.112 16.318 967.242 14.944 967.488 13.612C973.278 13.5463 978.884 11.5739 983.44 8V8Z" stroke="#AC94FA" stroke-width="4" stroke-linecap="round" stroke-linejoin="round"/>
<path d="M1206.99 25C1206.99 23.4087 1207.62 21.8826 1208.75 20.7574C1209.87 19.6321 1211.4 19 1212.99 19C1214.58 19 1216.11 19.6321 1217.23 20.7574C1218.36 21.8826 1218.99 23.4087 1218.99 25C1218.99 26.5913 1218.36 28.1174 1217.23 29.2426C1216.11 30.3679 1214.58 31 1212.99 31C1211.4 31 1209.87 30.3679 1208.75 29.2426C1207.62 28.1174 1206.99 26.5913 1206.99 25V25Z" fill="#1ABCFE"/>
<path d="M1194.99 37C1194.99 35.4087 1195.62 33.8826 1196.75 32.7574C1197.87 31.6321 1199.4 31 1200.99 31H1206.99V37C1206.99 38.5913 1206.36 40.1174 1205.23 41.2426C1204.11 42.3679 1202.58 43 1200.99 43C1199.4 43 1197.87 42.3679 1196.75 41.2426C1195.62 40.1174 1194.99 38.5913 1194.99 37V37Z" fill="#0ACF83"/>
<path d="M1206.99 7V19H1212.99C1214.58 19 1216.11 18.3679 1217.23 17.2426C1218.36 16.1174 1218.99 14.5913 1218.99 13C1218.99 11.4087 1218.36 9.88258 1217.23 8.75736C1216.11 7.63214 1214.58 7 1212.99 7H1206.99Z" fill="#FF7262"/>
<path d="M1194.99 13C1194.99 14.5913 1195.62 16.1174 1196.75 17.2426C1197.87 18.3679 1199.4 19 1200.99 19H1206.99V7H1200.99C1199.4 7 1197.87 7.63214 1196.75 8.75736C1195.62 9.88258 1194.99 11.4087 1194.99 13V13Z" fill="#F24E1E"/>
<path d="M1194.99 25C1194.99 26.5913 1195.62 28.1174 1196.75 29.2426C1197.87 30.3679 1199.4 31 1200.99 31H1206.99V19H1200.99C1199.4 19 1197.87 19.6321 1196.75 20.7574C1195.62 21.8826 1194.99 23.4087 1194.99 25V25Z" fill="#A259FF"/>
<path d="M1251.41 25.3594H1242.26V35H1238.3V12.25H1252.76V15.4375H1242.26V22.2031H1251.41V25.3594ZM1259.57 35H1255.77V18.0938H1259.57V35ZM1255.54 13.7031C1255.54 13.1198 1255.72 12.6354 1256.08 12.25C1256.46 11.8646 1256.99 11.6719 1257.68 11.6719C1258.36 11.6719 1258.9 11.8646 1259.27 12.25C1259.65 12.6354 1259.83 13.1198 1259.83 13.7031C1259.83 14.276 1259.65 14.7552 1259.27 15.1406C1258.9 15.5156 1258.36 15.7031 1257.68 15.7031C1256.99 15.7031 1256.46 15.5156 1256.08 15.1406C1255.72 14.7552 1255.54 14.276 1255.54 13.7031ZM1263.05 26.4219C1263.05 23.7969 1263.67 21.7031 1264.9 20.1406C1266.14 18.5677 1267.78 17.7812 1269.82 17.7812C1271.75 17.7812 1273.26 18.4531 1274.36 19.7969L1274.54 18.0938H1277.96V34.4844C1277.96 36.7031 1277.27 38.4531 1275.88 39.7344C1274.51 41.0156 1272.65 41.6562 1270.3 41.6562C1269.06 41.6562 1267.85 41.3958 1266.66 40.875C1265.48 40.3646 1264.59 39.6927 1263.97 38.8594L1265.77 36.5781C1266.94 37.9635 1268.38 38.6562 1270.08 38.6562C1271.34 38.6562 1272.34 38.3125 1273.07 37.625C1273.8 36.9479 1274.16 35.9479 1274.16 34.625V33.4844C1273.07 34.7031 1271.61 35.3125 1269.79 35.3125C1267.81 35.3125 1266.19 34.526 1264.93 32.9531C1263.68 31.3802 1263.05 29.2031 1263.05 26.4219ZM1266.83 26.75C1266.83 28.4479 1267.18 29.7865 1267.86 30.7656C1268.56 31.7344 1269.53 32.2188 1270.76 32.2188C1272.29 32.2188 1273.42 31.5625 1274.16 30.25V22.8125C1273.44 21.5312 1272.32 20.8906 1270.79 20.8906C1269.54 20.8906 1268.56 21.3854 1267.86 22.375C1267.18 23.3646 1266.83 24.8229 1266.83 26.75ZM1285.44 18.0938L1285.55 19.8594C1286.74 18.474 1288.36 17.7812 1290.43 17.7812C1292.69 17.7812 1294.23 18.6458 1295.07 20.375C1296.3 18.6458 1298.03 17.7812 1300.26 17.7812C1302.12 17.7812 1303.51 18.2969 1304.41 19.3281C1305.33 20.3594 1305.8 21.8802 1305.82 23.8906V35H1302.02V24C1302.02 22.9271 1301.79 22.1406 1301.32 21.6406C1300.85 21.1406 1300.07 20.8906 1298.99 20.8906C1298.13 20.8906 1297.42 21.125 1296.86 21.5938C1296.32 22.0521 1295.94 22.6562 1295.72 23.4062L1295.74 35H1291.94V23.875C1291.89 21.8854 1290.88 20.8906 1288.9 20.8906C1287.38 20.8906 1286.3 21.5104 1285.66 22.75V35H1281.86V18.0938H1285.44ZM1319.82 35C1319.65 34.6771 1319.51 34.151 1319.38 33.4219C1318.17 34.6823 1316.69 35.3125 1314.94 35.3125C1313.25 35.3125 1311.86 34.8281 1310.79 33.8594C1309.71 32.8906 1309.18 31.6927 1309.18 30.2656C1309.18 28.4635 1309.84 27.0833 1311.18 26.125C1312.52 25.1562 1314.44 24.6719 1316.93 24.6719H1319.26V23.5625C1319.26 22.6875 1319.01 21.9896 1318.52 21.4688C1318.03 20.9375 1317.29 20.6719 1316.29 20.6719C1315.42 20.6719 1314.71 20.8906 1314.16 21.3281C1313.61 21.7552 1313.33 22.3021 1313.33 22.9688H1309.54C1309.54 22.0417 1309.84 21.1771 1310.46 20.375C1311.07 19.5625 1311.91 18.9271 1312.96 18.4688C1314.02 18.0104 1315.2 17.7812 1316.51 17.7812C1318.48 17.7812 1320.06 18.2812 1321.24 19.2812C1322.42 20.2708 1323.02 21.6667 1323.05 23.4688V31.0938C1323.05 32.6146 1323.27 33.8281 1323.69 34.7344V35H1319.82ZM1315.65 32.2656C1316.4 32.2656 1317.1 32.0833 1317.76 31.7188C1318.42 31.3542 1318.92 30.8646 1319.26 30.25V27.0625H1317.21C1315.8 27.0625 1314.75 27.3073 1314.04 27.7969C1313.33 28.2865 1312.97 28.9792 1312.97 29.875C1312.97 30.6042 1313.21 31.1875 1313.69 31.625C1314.18 32.0521 1314.83 32.2656 1315.65 32.2656Z" fill="white"/>
<path d="M274.697 34.1148C272.787 34.1629 270.908 33.6319 269.307 32.5917C267.81 31.6049 266.699 30.1332 266.159 28.4238L269.44 27.2184C269.895 28.2684 270.638 29.168 271.583 29.8129C272.542 30.4557 273.676 30.7888 274.83 30.7671C275.94 30.8251 277.035 30.4936 277.927 29.8298C278.315 29.5042 278.621 29.0925 278.822 28.6275C279.022 28.1625 279.111 27.6571 279.082 27.1516C279.086 26.6807 278.977 26.2156 278.764 25.7958C278.578 25.4202 278.335 25.0756 278.044 24.7744C277.676 24.439 277.258 24.1624 276.805 23.9541C276.247 23.6756 275.784 23.4635 275.416 23.318C275.048 23.1734 274.507 22.9781 273.792 22.7322C272.899 22.4199 272.23 22.1745 271.784 21.996C271.179 21.7387 270.592 21.4423 270.026 21.1086C269.417 20.7854 268.863 20.3674 268.386 19.8702C267.972 19.3847 267.639 18.8365 267.398 18.2462C266.936 17.1207 266.839 15.8785 267.121 14.695C267.404 13.5115 268.051 12.4468 268.971 11.6512C270.311 10.4684 272.13 9.87697 274.428 9.87686C276.348 9.87686 277.926 10.3009 279.165 11.149C280.368 11.9485 281.251 13.1455 281.66 14.5305L278.446 15.6017C278.123 14.8763 277.578 14.2725 276.889 13.8775C276.056 13.4154 275.113 13.1897 274.161 13.2246C273.227 13.171 272.302 13.4302 271.533 13.9612C271.218 14.2048 270.967 14.5207 270.801 14.882C270.635 15.2434 270.559 15.6395 270.578 16.0367C270.581 16.3413 270.648 16.6419 270.775 16.9188C270.902 17.1957 271.086 17.4428 271.315 17.6438C271.76 18.0818 272.282 18.4336 272.855 18.6816C273.391 18.9049 274.205 19.2061 275.299 19.5855C275.968 19.8314 276.464 20.0155 276.788 20.1379C277.112 20.2603 277.586 20.4667 278.211 20.7572C278.712 20.9788 279.194 21.242 279.651 21.544C280.06 21.8384 280.451 22.157 280.822 22.4981C281.226 22.8482 281.571 23.2607 281.844 23.7199C282.104 24.1963 282.306 24.7019 282.446 25.2261C282.617 25.842 282.702 26.4787 282.697 27.1179C282.697 29.3054 281.95 31.0183 280.454 32.2565C278.959 33.4955 277.04 34.115 274.697 34.1148ZM296.155 33.7132L288.12 10.2787H291.87L297.193 26.6159C297.487 27.4945 297.733 28.3886 297.93 29.2941C298.126 28.3885 298.372 27.4944 298.666 26.6159L303.922 10.2785H307.638L299.637 33.7132H296.155ZM314.735 33.7132V10.2787H329.265V13.5597H318.217V19.9873H325.347V23.2683H318.217V30.4322H330.001V33.7132H314.735ZM338.872 33.7132V10.2787H342.354V30.3655H353.803V33.7132L338.872 33.7132ZM366.926 13.6264V33.7132H363.444V13.6264H356.816V10.2787H373.555V13.6264L366.926 13.6264ZM380.752 33.7132V10.2787H395.282V13.5597H384.234V19.9873H391.365V23.2683H384.234V30.4322H396.018V33.7132H380.752Z" fill="white"/>
<path d="M250.278 5.82171C246.192 -0.0260132 238.123 -1.7593 232.289 1.95803L222.042 8.48877C220.658 9.35962 219.47 10.5097 218.556 11.8655C217.641 13.2213 217.02 14.753 216.731 16.3627C216.242 19.0742 216.672 21.8712 217.952 24.3109C217.075 25.6414 216.477 27.136 216.193 28.7042C215.901 30.3463 215.94 32.0302 216.308 33.6571C216.675 35.2839 217.364 36.821 218.333 38.1782C222.42 44.0265 230.489 45.7591 236.323 42.0419L246.57 35.5112C247.954 34.6404 249.141 33.4904 250.056 32.1345C250.97 30.7787 251.592 29.2469 251.88 27.6372C252.369 24.9258 251.94 22.1288 250.66 19.6888C251.537 18.3583 252.135 16.8639 252.418 15.2957C252.71 13.6536 252.671 11.9697 252.304 10.3428C251.936 8.71593 251.248 7.17882 250.278 5.82171" fill="#FF3E00"/>
<path d="M231.288 38.7283C229.675 39.1475 227.973 39.0618 226.411 38.4827C224.848 37.9036 223.502 36.8591 222.552 35.4901C221.969 34.674 221.555 33.7496 221.334 32.7713C221.113 31.7929 221.089 30.7803 221.265 29.7927C221.324 29.4685 221.406 29.1488 221.51 28.8358L221.703 28.2474L222.227 28.633C223.44 29.5238 224.795 30.2011 226.236 30.6357L226.617 30.7512L226.582 31.1313C226.535 31.6721 226.681 32.2118 226.995 32.6549C227.281 33.0673 227.686 33.382 228.156 33.5566C228.627 33.7312 229.139 33.7572 229.625 33.6311C229.848 33.5716 230.06 33.4783 230.254 33.3545L240.501 26.8245C240.752 26.6666 240.967 26.4583 241.133 26.2127C241.299 25.9671 241.411 25.6897 241.464 25.3981C241.517 25.1004 241.509 24.7952 241.443 24.5004C241.376 24.2056 241.251 23.927 241.076 23.6808C240.79 23.2683 240.384 22.9535 239.914 22.7789C239.443 22.6042 238.931 22.5781 238.445 22.704C238.222 22.7635 238.01 22.8568 237.816 22.9804L233.906 25.4731C233.263 25.8819 232.561 26.19 231.825 26.3868C230.213 26.8061 228.51 26.7204 226.948 26.1413C225.386 25.5622 224.039 24.5176 223.089 23.1486C222.506 22.3325 222.092 21.4081 221.871 20.4298C221.65 19.4514 221.627 18.4388 221.802 17.4512C221.976 16.4833 222.35 15.5623 222.9 14.747C223.45 13.9318 224.164 13.2403 224.996 12.7168L235.242 6.18626C235.885 5.77677 236.588 5.46824 237.324 5.27142C238.937 4.85217 240.639 4.93788 242.201 5.51697C243.764 6.09605 245.11 7.14061 246.06 8.50958C246.643 9.32571 247.057 10.2501 247.278 11.2284C247.499 12.2068 247.523 13.2195 247.347 14.207C247.288 14.5312 247.206 14.8509 247.102 15.1639L246.909 15.7523L246.385 15.3673C245.172 14.476 243.817 13.7983 242.376 13.3637L241.995 13.2481L242.03 12.8681C242.077 12.3274 241.93 11.7878 241.617 11.3446C241.331 10.9322 240.926 10.6174 240.455 10.4429C239.985 10.2683 239.473 10.2422 238.987 10.3683C238.764 10.4278 238.552 10.5211 238.358 10.6449L228.111 17.1752C227.86 17.333 227.645 17.5413 227.479 17.7869C227.313 18.0326 227.201 18.31 227.148 18.6016C227.095 18.8993 227.102 19.2045 227.169 19.4994C227.235 19.7943 227.36 20.073 227.536 20.3191C227.822 20.7316 228.227 21.0464 228.698 21.221C229.168 21.3957 229.681 21.4218 230.167 21.2959C230.389 21.2362 230.602 21.143 230.796 21.0193L234.706 18.5276C235.349 18.1182 236.05 17.8098 236.786 17.6131C238.399 17.1938 240.101 17.2795 241.663 17.8586C243.226 18.4377 244.573 19.4823 245.522 20.8513C246.105 21.6674 246.52 22.5918 246.741 23.5701C246.962 24.5485 246.985 25.5611 246.81 26.5487C246.636 27.5167 246.262 28.4378 245.712 29.2531C245.162 30.0684 244.448 30.7601 243.616 31.2838L233.37 37.8134C232.726 38.2229 232.024 38.5315 231.287 38.7283" fill="white"/>
<defs>
<linearGradient id="paint0_linear" x1="735.173" y1="6.00092" x2="740.853" y2="41.7109" gradientUnits="userSpaceOnUse">
<stop stop-color="#66E3FF"/>
<stop offset="1" stop-color="#7064F9"/>
</linearGradient>
<linearGradient id="paint1_linear" x1="735.173" y1="5.99993" x2="740.854" y2="41.7109" gradientUnits="userSpaceOnUse">
<stop stop-color="#66E3FF"/>
<stop offset="1" stop-color="#7064F9"/>
</linearGradient>
</defs>
</svg>
